PathFileType	4	(x/y/z)	TRC_MarkerData\Calibration\Standing_Cal_SL_Passive0001.trc
DataRate	CameraRate	NumFrames	NumMarkers	Units	OrigDataRate	OrigDataStartFrame	OrigNumFrames
240	240	8	50	mm	240	2101	2400
Frame#	Time	R_AC			L_AC			HEAD			STERN			C7			L_IC			R_IC			L_ASIS			R_ASIS			L_GT			R_GT			L_PSIS			R_PSIS			SACRAL			L_LAT_KNEE			L_MED_KNEE			R_LAT_KNEE			R_MED_KNEE			L_LAT_ANK			L_MED_ANK			R_LAT_ANK			R_MED_ANK			L_THIGH_PROX_POST			L_THIGH_PROX_ANT			L_THIGH_DIST_ANT			L_THIGH_DIST_POST			R_THIGH_PROX_POST			R_THIGH_PROX_ANT			R_THIGH_DIST_ANT			R_THIGH_DIST_POST			L_SHANK_PROX_POST			L_SHANK_PROX_ANT			L_SHANK_DIST_ANT			L_SHANK_DIST_POST			R_SHANK_PROX_POST			R_SHANK_PROX_ANT			R_SHANK_DIST_ANT			R_SHANK_DIST_POST			L_HEEL_LAT			L_HEEL_SUP			L_HEEL_MED			R_HEEL_LAT			R_HEEL_SUP			R_HEEL_MED			L_1ST_MET			L_5TH_MET			L_TOE			R_1ST_MET			R_5TH_MET			R_TOE			
		X1	Y1	Z1	X2	Y2	Z2	X3	Y3	Z3	X4	Y4	Z4	X5	Y5	Z5	X6	Y6	Z6	X7	Y7	Z7	X8	Y8	Z8	X9	Y9	Z9	X10	Y10	Z10	X11	Y11	Z11	X12	Y12	Z12	X13	Y13	Z13	X14	Y14	Z14	X15	Y15	Z15	X16	Y16	Z16	X17	Y17	Z17	X18	Y18	Z18	X19	Y19	Z19	X20	Y20	Z20	X21	Y21	Z21	X22	Y22	Z22	X23	Y23	Z23	X24	Y24	Z24	X25	Y25	Z25	X26	Y26	Z26	X27	Y27	Z27	X28	Y28	Z28	X29	Y29	Z29	X30	Y30	Z30	X31	Y31	Z31	X32	Y32	Z32	X33	Y33	Z33	X34	Y34	Z34	X35	Y35	Z35	X36	Y36	Z36	X37	Y37	Z37	X38	Y38	Z38	X39	Y39	Z39	X40	Y40	Z40	X41	Y41	Z41	X42	Y42	Z42	X43	Y43	Z43	X44	Y44	Z44	X45	Y45	Z45	X46	Y46	Z46	X47	Y47	Z47	X48	Y48	Z48	X49	Y49	Z49	X50	Y50	Z50	

2101	8.7536	547.1	1584.6	474.19	545.86	1605.5	172.4	660.65	1858.4	333.42	672.78	1532	327.4	523.4	1599.1	326.3	595.03	1132.5	149.48	611.65	1124	489.31	666.26	1056.2	176.65	672.79	1040.1	449.19	569.36	983.12	125.49	581.67	972.33	498.49	463.58	1075.6	273.18	475.5	1071.4	379.7	454.01	1052.3	328.15	578.34	573.21	125.91	602.58	567.75	260.26	529.32	559.51	498.13	553.86	541.15	373.67	490.01	128.37	106.04	494.08	125.75	184.22	466.83	95.803	485.62	504.43	116.24	391.66	539.46	830.28	131.3	603.35	822.05	117.81	600.68	746.32	123.05	538.06	756.07	136.97	541.15	807.93	504.02	607.68	801.78	512.38	594.89	727.95	508.06	527.45	733.91	497.71	580.47	518.99	128.37	624.14	529.9	138.97	621.54	479.53	140.84	571.92	465.31	129.51	432.05	407.97	489.5	496.94	415.18	517.66	501.28	340.54	514.57	437.29	331.23	488.85	426.32	52.829	105.12	417.46	75.994	142.35	427.36	42.836	172.08	408.51	38.782	453.05	404.5	65.458	417.04	425.85	38.77	387.97	655	48.533	186.59	633.05	48.335	82.569	705.84	58.585	160.95	654.01	50.762	427.75	605.17	33.51	530.15	688.54	57.821	484.36
2102	8.7578	547.11	1584.6	474.19	545.86	1605.5	172.4	660.63	1858.4	333.42	672.78	1532	327.4	523.4	1599.1	326.3	595.02	1132.5	149.48	611.66	1124	489.31	666.25	1056.2	176.65	672.8	1040.1	449.18	569.35	983.12	125.49	581.68	972.33	498.49	463.57	1075.6	273.19	475.5	1071.4	379.71	454.01	1052.3	328.16	578.35	573.21	125.91	602.6	567.75	260.26	529.33	559.51	498.13	553.87	541.14	373.67	490.01	128.37	106.04	494.08	125.75	184.22	466.82	95.799	485.62	504.43	116.24	391.66	539.47	830.28	131.31	603.35	822.05	117.81	600.69	746.31	123.05	538.07	756.07	136.97	541.17	807.93	504.02	607.69	801.78	512.38	594.91	727.95	508.06	527.46	733.91	497.72	580.48	518.99	128.37	624.15	529.9	138.97	621.55	479.53	140.83	571.93	465.31	129.51	432.06	407.97	489.5	496.95	415.18	517.66	501.29	340.54	514.57	437.29	331.23	488.85	426.32	52.831	105.12	417.46	75.997	142.35	427.36	42.839	172.08	408.5	38.773	453.06	404.5	65.455	417.04	425.84	38.768	387.97	655	48.532	186.59	633.05	48.333	82.569	705.84	58.584	160.95	654.01	50.763	427.75	605.17	33.511	530.15	688.54	57.825	484.36
2103	8.762	547.11	1584.6	474.2	545.85	1605.5	172.41	660.62	1858.4	333.42	672.78	1532	327.39	523.4	1599.1	326.31	595.02	1132.5	149.48	611.67	1124	489.31	666.24	1056.2	176.65	672.81	1040.1	449.18	569.35	983.12	125.5	581.69	972.33	498.49	463.57	1075.6	273.2	475.5	1071.4	379.71	454.01	1052.3	328.17	578.37	573.21	125.91	602.61	567.75	260.26	529.35	559.5	498.13	553.87	541.14	373.67	490.01	128.38	106.04	494.08	125.76	184.22	466.82	95.795	485.62	504.42	116.24	391.66	539.47	830.28	131.31	603.36	822.05	117.81	600.7	746.31	123.05	538.07	756.07	136.97	541.18	807.93	504.03	607.71	801.78	512.38	594.93	727.94	508.06	527.48	733.91	497.72	580.49	518.99	128.36	624.16	529.9	138.97	621.56	479.53	140.83	571.94	465.31	129.51	432.07	407.97	489.5	496.95	415.18	517.66	501.29	340.53	514.57	437.3	331.23	488.86	426.32	52.833	105.12	417.46	76.001	142.35	427.36	42.842	172.08	408.5	38.764	453.06	404.5	65.452	417.04	425.84	38.766	387.98	655.01	48.532	186.59	633.05	48.332	82.568	705.85	58.582	160.95	654	50.765	427.75	605.17	33.513	530.14	688.54	57.828	484.36
2104	8.7662	547.12	1584.6	474.2	545.85	1605.5	172.41	660.6	1858.4	333.42	672.78	1532	327.39	523.4	1599.1	326.32	595.01	1132.5	149.48	611.68	1124	489.31	666.24	1056.2	176.65	672.82	1040.1	449.17	569.34	983.12	125.5	581.7	972.33	498.49	463.57	1075.5	273.2	475.5	1071.4	379.72	454.01	1052.3	328.18	578.38	573.21	125.91	602.63	567.75	260.25	529.36	559.5	498.13	553.88	541.14	373.67	490.02	128.38	106.04	494.08	125.76	184.22	466.82	95.791	485.62	504.42	116.24	391.66	539.47	830.28	131.31	603.36	822.05	117.81	600.71	746.31	123.05	538.08	756.06	136.97	541.2	807.93	504.03	607.72	801.78	512.38	594.94	727.94	508.06	527.49	733.91	497.73	580.5	518.99	128.36	624.18	529.9	138.96	621.58	479.53	140.83	571.95	465.31	129.51	432.07	407.97	489.5	496.96	415.18	517.66	501.3	340.53	514.57	437.3	331.23	488.87	426.32	52.836	105.13	417.47	76.004	142.35	427.37	42.844	172.08	408.5	38.756	453.06	404.5	65.448	417.04	425.84	38.765	387.98	655.01	48.531	186.59	633.05	48.331	82.567	705.85	58.581	160.95	654	50.766	427.75	605.17	33.514	530.14	688.54	57.832	484.36
2105	8.7703	547.13	1584.6	474.2	545.85	1605.5	172.42	660.59	1858.4	333.42	672.78	1532	327.39	523.4	1599.1	326.32	595	1132.5	149.48	611.69	1124	489.31	666.23	1056.2	176.65	672.83	1040.1	449.17	569.33	983.12	125.5	581.71	972.33	498.49	463.56	1075.5	273.21	475.5	1071.4	379.72	454.01	1052.3	328.18	578.39	573.21	125.9	602.65	567.74	260.25	529.37	559.5	498.13	553.88	541.14	373.67	490.02	128.38	106.04	494.08	125.76	184.22	466.82	95.787	485.62	504.42	116.24	391.66	539.48	830.28	131.31	603.36	822.06	117.81	600.72	746.31	123.05	538.09	756.06	136.97	541.21	807.93	504.03	607.73	801.78	512.38	594.95	727.94	508.06	527.5	733.91	497.73	580.51	518.99	128.36	624.19	529.9	138.96	621.59	479.52	140.82	571.96	465.31	129.5	432.08	407.97	489.51	496.97	415.18	517.66	501.3	340.53	514.57	437.3	331.23	488.87	426.33	52.84	105.13	417.47	76.008	142.36	427.37	42.847	172.08	408.5	38.748	453.06	404.5	65.445	417.04	425.84	38.763	387.98	655.01	48.53	186.59	633.05	48.33	82.567	705.85	58.579	160.95	654	50.768	427.75	605.17	33.515	530.14	688.54	57.836	484.35
2106	8.7745	547.14	1584.6	474.21	545.85	1605.5	172.42	660.58	1858.4	333.42	672.78	1532	327.38	523.4	1599.1	326.33	594.99	1132.5	149.48	611.7	1124	489.31	666.23	1056.2	176.65	672.84	1040.1	449.16	569.33	983.12	125.5	581.72	972.33	498.5	463.56	1075.5	273.22	475.5	1071.3	379.73	454.01	1052.3	328.19	578.41	573.21	125.9	602.66	567.74	260.25	529.38	559.5	498.13	553.89	541.14	373.67	490.02	128.39	106.04	494.09	125.77	184.22	466.82	95.784	485.62	504.41	116.24	391.66	539.48	830.28	131.31	603.37	822.06	117.81	600.73	746.3	123.06	538.1	756.06	136.97	541.22	807.93	504.03	607.74	801.78	512.38	594.96	727.93	508.06	527.51	733.91	497.73	580.53	518.99	128.36	624.2	529.9	138.96	621.6	479.52	140.82	571.97	465.31	129.5	432.09	407.97	489.51	496.97	415.18	517.66	501.31	340.53	514.57	437.31	331.24	488.87	426.33	52.843	105.13	417.47	76.011	142.36	427.37	42.85	172.08	408.5	38.741	453.06	404.5	65.442	417.04	425.84	38.761	387.98	655.01	48.529	186.59	633.05	48.329	82.566	705.85	58.577	160.94	654	50.77	427.75	605.17	33.516	530.14	688.54	57.84	484.35
2107	8.7787	547.15	1584.6	474.21	545.85	1605.5	172.42	660.57	1858.4	333.43	672.78	1532	327.38	523.4	1599.1	326.34	594.99	1132.5	149.48	611.71	1124	489.3	666.22	1056.2	176.65	672.84	1040.1	449.16	569.32	983.12	125.5	581.73	972.33	498.5	463.55	1075.5	273.22	475.5	1071.3	379.73	454.01	1052.3	328.2	578.42	573.21	125.9	602.68	567.74	260.25	529.39	559.49	498.13	553.89	541.14	373.67	490.02	128.39	106.04	494.09	125.77	184.22	466.82	95.782	485.62	504.41	116.24	391.66	539.48	830.28	131.32	603.37	822.06	117.81	600.73	746.3	123.06	538.1	756.06	136.97	541.23	807.93	504.03	607.75	801.78	512.37	594.97	727.93	508.06	527.52	733.91	497.73	580.54	518.99	128.35	624.22	529.9	138.96	621.62	479.52	140.82	571.99	465.31	129.5	432.09	407.97	489.51	496.98	415.18	517.66	501.31	340.53	514.57	437.31	331.24	488.88	426.33	52.846	105.13	417.47	76.015	142.36	427.37	42.853	172.08	408.49	38.734	453.06	404.49	65.439	417.04	425.84	38.758	387.98	655.01	48.528	186.59	633.05	48.328	82.565	705.85	58.576	160.94	654	50.771	427.75	605.17	33.518	530.14	688.54	57.844	484.35
2108	8.7828	547.15	1584.6	474.22	545.85	1605.5	172.43	660.56	1858.4	333.43	672.78	1532	327.38	523.4	1599.1	326.34	594.98	1132.5	149.48	611.72	1124	489.3	666.21	1056.2	176.65	672.85	1040.1	449.16	569.32	983.12	125.51	581.74	972.32	498.5	463.55	1075.5	273.23	475.5	1071.3	379.74	454.01	1052.3	328.2	578.44	573.21	125.9	602.69	567.74	260.24	529.4	559.49	498.13	553.9	541.14	373.67	490.02	128.39	106.04	494.09	125.77	184.22	466.81	95.78	485.62	504.41	116.24	391.65	539.49	830.28	131.32	603.37	822.06	117.81	600.74	746.3	123.06	538.11	756.06	136.98	541.24	807.93	504.03	607.76	801.77	512.37	594.98	727.93	508.06	527.53	733.91	497.73	580.55	518.99	128.35	624.23	529.89	138.95	621.63	479.52	140.82	572	465.31	129.5	432.1	407.97	489.51	496.98	415.18	517.66	501.32	340.53	514.57	437.32	331.24	488.88	426.33	52.85	105.13	417.47	76.019	142.36	427.37	42.856	172.08	408.49	38.728	453.06	404.49	65.436	417.04	425.83	38.756	387.98	655.01	48.528	186.59	633.05	48.327	82.565	705.85	58.574	160.94	654	50.773	427.75	605.17	33.519	530.14	688.54	57.848	484.35
